<svg width="32" height="32" xmlns="http://www.w3.org/2000/svg"><path fill="none" d="M-1-1h582v402H-1z"/><path fill="#333" d="M32.045 10.5a2.987 2.987 0 00-2.326-2.924L16.706 4.573a3.016 3.016 0 00-1.336.003l-13 3C1 7.892.046 9.094.046 10.5s.957 2.608 2.325 2.924l2.675.617V22.5c0 2.654 3.038 5 11 5s11-2.346 11-5v-8.459l2.674-.617a2.987 2.987 0 002.326-2.924zm-7 12c0 1.105-3 3-9 3s-9-1.895-9-3v-7.997l8.338 1.924a3.025 3.025 0 001.336-.003l8.326-1.921V22.5zm-8.775-8.025a1.077 1.077 0 01-.45 0l-13-3a1 1 0 010-1.95l13-3a1.063 1.063 0 01.45 0l13 3a1.001 1.001 0 010 1.95l-13 3z"/></svg>